<svg width="472" height="178" viewBox="0 0 472 178" fill="none" xmlns="http://www.w3.org/2000/svg">
<path d="M402.605 149.396C402.134 149.749 401.781 156.458 401.781 164.11C401.781 177.176 401.899 178 404.135 178C406.254 178 406.49 177.058 406.725 167.17L407.078 156.223L413.552 167.17C418.613 175.763 420.497 178 422.615 178C425.323 178 425.323 177.765 425.323 163.286C425.323 149.396 425.205 148.572 422.969 148.572C420.967 148.572 420.614 149.513 420.379 159.284L420.026 169.878L413.67 159.284C407.784 149.278 405.077 146.806 402.605 149.396Z" fill="white"/>
<path d="M428.852 149.508C428.852 149.979 429.558 151.391 430.382 152.686C431.206 153.981 433.09 156.924 434.502 159.278L436.974 163.398L434.267 167.518C426.851 178.583 427.087 177.995 430.265 177.995C432.383 177.995 433.678 176.7 435.915 172.697C437.563 169.755 439.093 167.4 439.446 167.4C439.799 167.4 441.565 169.755 443.33 172.697C445.449 175.993 447.568 177.995 448.98 177.995C452.041 177.995 451.805 177.171 447.097 170.108C444.86 166.694 442.977 163.516 442.977 163.045C442.977 162.456 444.86 159.278 447.097 155.982C451.923 148.802 451.923 148.566 448.98 148.566C447.685 148.566 445.331 150.685 443.212 154.099L439.681 159.514L436.268 154.099C434.384 150.92 432.148 148.566 430.971 148.566C429.794 148.566 428.852 148.919 428.852 149.508Z" fill="white"/>
<path d="M7.09274 2.66789C2.64345 5.31355 -0.634976 11.9852 0.184631 16.4713C1.3555 21.7627 40.3454 98.6019 43.2725 101.248C48.5414 105.849 51.2344 106.194 90.9268 106.194C125.116 106.194 129.682 106.424 133.195 108.264C138.581 110.91 141.625 115.281 142.328 121.263C142.796 125.864 141.859 128.509 130.502 150.825C123.594 164.283 118.325 175.901 118.676 176.476C119.613 177.972 193.612 177.857 199.115 176.361C207.311 174.061 210.121 170.495 223.352 144.383C228.541 134.187 243.141 134.168 248.291 144.383C261.405 170.495 264.098 174.061 272.411 176.361C274.987 177.051 292.199 177.512 314.562 177.512C345.356 177.512 352.498 177.166 352.967 175.901C353.318 175.096 347.932 163.363 341.141 149.79C330.018 127.934 328.73 124.713 329.198 120.687C330.018 115.051 333.062 110.795 338.331 108.264C341.843 106.424 346.41 106.194 380.599 106.194C420.292 106.194 423.102 105.849 428.253 101.248C432.234 97.5666 471.693 19.4621 471.693 15.206C471.693 10.3748 468.765 5.19853 464.316 2.66789C460.803 0.482346 458.111 0.367325 412.33 0.367325C381.068 0.367325 362.919 0.827438 360.811 1.63263C354.255 4.04823 350.742 9.22453 333.999 41.8927C319.363 70.6499 316.787 75.021 313.626 76.2863C310.816 77.4366 309.41 77.4366 306.483 76.2863C303.556 75.021 301.683 72.2603 295.243 59.7222C287.281 43.9632 284.705 40.2823 279.436 37.6366C274.87 35.3361 198.295 35.221 192.558 37.6366C187.289 39.8222 184.011 44.4233 175.932 60.5274C170.78 70.7649 168.321 74.5609 165.745 75.8262C162.115 77.6666 158.603 77.0915 155.09 74.1007C153.919 73.0655 145.723 57.9967 136.825 40.6274C120.784 9.22453 117.388 4.04823 110.714 1.63263C108.607 0.827438 90.4584 0.367325 59.1963 0.367325C12.83 0.367325 10.8395 0.482346 7.09274 2.66789Z" fill="#155652"/>
<path d="M20.5197 15.0386C16.3217 17.383 13.2284 23.295 14.0017 27.2703C15.1065 31.9591 49.1209 97.1556 51.8828 99.5C56.8542 103.577 64.9319 102 102.383 102C134.641 102 137.569 105.869 140.883 107.5C145.965 109.844 147.455 114.829 148.118 120.129C148.56 124.206 147.676 126.551 136.96 146.325C130.442 158.251 125.471 168.546 125.802 169.056C126.686 170.381 196.506 170.279 201.698 168.954C209.431 166.915 212.016 161.638 224.5 138.5C229.774 129.761 242.536 130.028 247.441 138.979L248 140C260.373 163.138 263.011 166.915 270.855 168.954C273.286 169.565 289.525 169.973 310.626 169.973C339.681 169.973 346.42 169.667 346.862 168.546C347.193 167.833 342.111 157.436 335.704 145.408C325.209 126.041 323.993 123.187 324.435 119.619C325.209 114.625 328.911 107.742 333.883 105.5C337.197 103.869 340.624 102.5 372.883 102.5C410.334 102.5 413.522 101.577 418.383 97.5C422.139 94.2382 458.883 29.9205 458.883 26.149C458.883 21.868 456.121 17.2811 451.923 15.0386C448.609 13.1019 446.068 13 402.872 13C373.376 13 361.371 13.7865 359.383 14.5C353.196 16.6405 349.681 22.0517 333.883 51C320.073 76.4826 317.483 79.1529 314.5 80.2742C311.849 81.2935 305.765 81.2935 303.003 80.2742C300.241 79.1529 298.474 76.7066 292.398 65.5962C284.885 51.6317 282.455 48.3699 277.484 46.0255C273.175 43.9869 200.925 43.885 195.511 46.0255C190.54 47.9622 187.447 52.0394 179.824 66.3097C174.963 75.3815 172.643 78.7452 170.213 79.8664C164.172 82.7431 154.484 80.3313 150.701 74.8125C146.429 68.5794 141.782 58.3395 136.96 49.5C121.825 21.673 120.797 16.1405 114.5 14C112.511 13.2865 99.1776 13 69.6809 13C25.933 13 24.0549 13.1019 20.5197 15.0386Z" fill="#2CCFC0"/>
</svg>
